<svg xmlns="http://www.w3.org/2000/svg" width="64" height="64" viewBox="0 0 64 64" version="1.1"><path d="M 21.907 8.327 C 16.232 11.323, 11.935 17.401, 11.260 23.387 C 10.547 29.711, 12.477 29.350, 14.031 22.869 C 18.580 3.910, 45.420 3.910, 49.969 22.869 C 51.523 29.350, 53.453 29.711, 52.740 23.387 C 51.626 13.498, 42.681 6, 32 6 C 27.978 6, 25.025 6.681, 21.907 8.327 M 36.544 11.928 C 36.229 12.438, 36.865 13.140, 37.958 13.487 C 39.050 13.833, 41.487 15.920, 43.373 18.123 C 45.336 20.416, 47.078 21.683, 47.447 21.085 C 48.355 19.617, 46.577 16.663, 42.946 13.608 C 39.734 10.905, 37.533 10.328, 36.544 11.928 M 23 43.415 C 23 45.799, 23.118 45.829, 32 45.711 C 41.103 45.590, 41.491 45.443, 40.382 42.552 C 39.826 41.104, 39.623 41.121, 38.379 42.721 C 37.442 43.926, 37.161 44.015, 37.510 42.997 C 38.213 40.944, 29.117 40.532, 28.331 42.580 C 27.895 43.717, 27.556 43.699, 26.331 42.474 C 24.186 40.329, 23 40.664, 23 43.415 M 24.333 44.667 C 24.700 45.033, 25.300 45.033, 25.667 44.667 C 26.033 44.300, 25.733 44, 25 44 C 24.267 44, 23.967 44.300, 24.333 44.667 M 33.333 44.667 C 33.700 45.033, 34.300 45.033, 34.667 44.667 C 35.033 44.300, 34.733 44, 34 44 C 33.267 44, 32.967 44.300, 33.333 44.667" stroke="none" fill="#2a67fc" fill-rule="evenodd"/><path d="M 22.389 25.430 C 21.393 28.025, 22.788 30.169, 25.246 29.820 C 26.898 29.585, 27.500 28.833, 27.500 27 C 27.500 25.167, 26.898 24.415, 25.246 24.180 C 23.893 23.988, 22.750 24.488, 22.389 25.430 M 36.389 25.430 C 35.393 28.025, 36.788 30.169, 39.246 29.820 C 40.898 29.585, 41.500 28.833, 41.500 27 C 41.500 25.167, 40.898 24.415, 39.246 24.180 C 37.893 23.988, 36.750 24.488, 36.389 25.430 M 11 41.800 C 11 56.661, 11.420 58, 16.078 58 C 19.122 58, 20.438 56.697, 21.381 52.750 C 21.821 50.908, 22.686 50, 24 50 C 25.314 50, 26.179 50.908, 26.619 52.750 C 27.567 56.719, 28.880 58, 32 58 C 35.120 58, 36.433 56.719, 37.381 52.750 C 37.821 50.908, 38.686 50, 40 50 C 41.314 50, 42.179 50.908, 42.619 52.750 C 42.980 54.263, 43.719 56.063, 44.260 56.750 C 45.513 58.341, 50.228 58.372, 51.800 56.800 C 53.319 55.281, 53.509 28, 52 28 C 51.387 28, 51 32.810, 51 40.429 C 51 50.742, 50.714 53.144, 49.318 54.539 C 47.741 56.116, 47.552 56.108, 46.318 54.420 C 45.593 53.429, 45 51.894, 45 51.009 C 45 48.622, 42.946 47, 39.922 47 C 36.900 47, 35.561 48.305, 34.647 52.140 C 33.729 55.990, 31.180 56.571, 29.863 53.230 C 27.854 48.135, 27.301 47.500, 24.589 47.178 C 21.427 46.802, 19 48.484, 19 51.051 C 19 52.044, 18.243 53.614, 17.318 54.539 C 14.125 57.732, 13 54.024, 13 40.309 C 13 32.770, 12.613 28, 12 28 C 11.382 28, 11 33.267, 11 41.800 M 28.200 34.200 C 27.540 34.860, 27 36.435, 27 37.700 C 27 39.793, 27.449 40, 32 40 C 36.551 40, 37 39.793, 37 37.700 C 37 34.681, 35.212 33, 32 33 C 30.570 33, 28.860 33.540, 28.200 34.200" stroke="none" fill="#9965fc" fill-rule="evenodd"/></svg>